<svg xmlns="http://www.w3.org/2000/svg" viewBox="0 0 64 64">
  <style>
    .justice { fill: #203773 }
    @media (prefers-color-scheme: dark) {
      .justice { fill: #ffffff }
    }
  </style>
  <path class='justice' fill-rule="evenodd" d="M17.5 57.75h29v-.483a.483.483 0 0 0-.483-.484h-.484C43.842 54.69 39.347 50.5 34.9 50.5c1.933-1.933 2.9-2.9 2.9-3.383v-.967c-1.45-4.833-3.867-17.013-3.867-27.067 0-1.933.323-3.383.484-3.866 1.043-.298 5.035-.872 14.5-.957v-.01h2.9c-.55.061-1.6.252-2.33.594a2.417 2.417 0 1 0-.37-2.527H33.934v-2.4c-1.082-.367-2.416-.5-2.416-.5H34.9V7h-5.8v2.417c.322 0 .967.096.967.483v2.417H14.882a2.417 2.417 0 1 0-.252 2.376c-.682-.248-1.5-.391-1.963-.443h2.416l.006.01c8.282.075 12.372.523 13.962.834a11.497 11.497 0 0 0-.434-1.81c.241.322.773 1.16.966 1.933.161.483.484 1.933.484 3.866 0 10.054-2.417 22.234-3.867 27.067v.967c0 .446.823 1.303 2.47 2.952 1.197.314 2.363.431 2.363.431H29.1c-3.573 0-7.177 2.704-9.333 4.854 4.636.142 9.352.988 11.266 1.43h-13.05a.483.483 0 0 0-.483.483v.483Zm-4.833-14.5C7.327 43.25 3 39.867 3 38.417c.582 0 1.104-.36 1.312-.903l8.129-21.225a.242.242 0 0 1 .451 0l8.129 21.225c.208.544.73.903 1.312.903 0 1.45-4.328 4.833-9.666 4.833Zm6.995-6.18a1 1 0 0 1-.939 1.347H6.61a1 1 0 0 1-.938-1.347l6.995-18.953 6.995 18.953Zm22.005 1.347c0 1.45 4.328 4.833 9.666 4.833 5.34 0 9.667-3.383 9.667-4.833a1.405 1.405 0 0 1-1.312-.903l-8.129-21.225a.242.242 0 0 0-.451 0l-8.129 21.225c-.208.544-.73.903-1.312.903Zm2.672-1.347a1 1 0 0 0 .938 1.347H57.39a1 1 0 0 0 .938-1.347l-6.995-18.953L44.34 37.07Z" clip-rule="evenodd"/>
</svg>
